<svg width="21" height="20" viewBox="0 0 21 20" fill="none" xmlns="http://www.w3.org/2000/svg">
<path fill-rule="evenodd" clip-rule="evenodd" d="M4.98311 0.815291C1.31152 1.99738 -0.326136 6.00569 0.90482 9.82952C1.52947 11.6301 2.54534 13.2485 3.88004 14.5762C5.71101 16.3545 7.72254 17.9194 9.88488 19.2491L10.1304 19.3961C10.3656 19.5369 10.6598 19.5344 10.8926 19.3897L11.1218 19.2473C13.2812 17.9194 15.2927 16.3545 17.1174 14.5824C18.4584 13.2485 19.4743 11.6301 20.0937 9.84515C21.3291 6.00801 19.6847 1.9978 16.012 0.81535L15.7463 0.736231C14.0624 0.273087 12.273 0.501301 10.7645 1.35535L10.4964 1.51429L10.233 1.35623C8.64194 0.45344 6.7404 0.250031 4.98311 0.815291ZM9.87465 2.85427L10.0714 2.99538C10.3307 3.18111 10.6806 3.17742 10.936 2.98625C12.266 1.99057 13.9873 1.70082 15.5641 2.20669C18.4097 3.12284 19.7047 6.28096 18.7064 9.38199C18.165 10.9417 17.2687 12.3696 16.0916 13.5405L15.5636 14.0421C14.141 15.3642 12.6026 16.561 10.9691 17.6156L10.5013 17.9098L10.644 17.9998C8.58049 16.7308 6.65375 15.2319 4.90582 13.5343C3.73505 12.3696 2.83877 10.9417 2.29207 9.36635C1.29808 6.27801 2.58746 3.12212 5.43153 2.20646C6.93331 1.72339 8.57056 1.96289 9.87465 2.85427ZM14.3703 4.48374C13.9855 4.36093 13.5739 4.57304 13.451 4.95749C13.3281 5.34194 13.5404 5.75316 13.9252 5.87597C14.6814 6.11735 15.2206 6.79803 15.2881 7.60096C15.322 8.00313 15.6757 8.30175 16.0782 8.26794C16.4807 8.23413 16.7796 7.8807 16.7457 7.47853C16.6288 6.08859 15.6917 4.90551 14.3703 4.48374Z" fill="#333333"/>
</svg>
