<svg width="24" height="24" viewBox="0 0 24 24" fill="none" xmlns="http://www.w3.org/2000/svg">
<path fill-rule="evenodd" clip-rule="evenodd" d="M2.87782 2.51099L2.77637 2.50038C2.40719 2.48688 2.07565 2.74796 2.0109 3.12209L2.00029 3.22354C1.98679 3.59272 2.24787 3.92426 2.622 3.98901L4.13101 4.25L5.04554 15.1457L5.06446 15.3095C5.24846 16.5519 6.31711 17.486 7.58991 17.486H18.5019L18.6663 17.4808C19.8626 17.4044 20.8545 16.4996 21.0291 15.2978L21.9782 8.73941L21.9946 8.58877C22.0819 7.38969 21.132 6.349 19.9089 6.349L5.81201 6.349L5.57728 3.54727L5.55959 3.43641C5.49115 3.14809 5.25676 2.92273 4.95782 2.87099L2.87782 2.51099ZM7.47397 15.9797C6.9787 15.9255 6.58261 15.5277 6.54031 15.0207L5.93801 7.849L19.9089 7.849L19.9971 7.85548C20.3128 7.90242 20.5409 8.19769 20.4936 8.52465L19.5446 15.0826L19.5208 15.1998C19.4005 15.6584 18.985 15.986 18.5019 15.986L7.58991 15.986L7.47397 15.9797ZM5.90831 20.5853C5.90831 19.7492 6.58598 19.0703 7.42231 19.0703C8.25852 19.0703 8.93731 19.7491 8.93731 20.5853C8.93731 21.4216 8.25841 22.0993 7.42231 22.0993C6.5861 22.0993 5.90831 21.4215 5.90831 20.5853ZM17.1597 20.5853C17.1597 19.7491 17.8385 19.0703 18.6747 19.0703C19.5109 19.0703 20.1897 19.7491 20.1897 20.5853C20.1897 21.4216 19.5108 22.0993 18.6747 22.0993C17.8386 22.0993 17.1597 21.4216 17.1597 20.5853ZM17.6484 10.795C17.6484 10.3808 17.3126 10.045 16.8984 10.045H14.1254L14.0236 10.0518C13.6576 10.1015 13.3754 10.4153 13.3754 10.795C13.3754 11.2092 13.7112 11.545 14.1254 11.545H16.8984L17.0002 11.5382C17.3663 11.4885 17.6484 11.1747 17.6484 10.795Z" fill="#200E32"/>
</svg>
