<svg width="36" height="36" viewBox="0 0 36 36" fill="none" xmlns="http://www.w3.org/2000/svg">
<circle cx="18" cy="18" r="18" fill="#FAFAFA"/>
<path d="M6 14C6 9.58172 9.58172 6 14 6H22C26.4183 6 30 9.58172 30 14V22C30 26.4183 26.4183 30 22 30H14C9.58172 30 6 26.4183 6 22V14Z" fill="#C94A4F"/>
<path fill-rule="evenodd" clip-rule="evenodd" d="M22.9394 9C24.2804 9 25.5704 9.53 26.5194 10.481C27.4694 11.43 28.0004 12.71 28.0004 14.05V21.95C28.0004 24.74 25.7304 27 22.9394 27H13.0604C10.2694 27 8.00037 24.74 8.00037 21.95V14.05C8.00037 11.26 10.2594 9 13.0604 9H22.9394ZM24.5304 15.54L24.6104 15.46C24.8494 15.17 24.8494 14.75 24.5994 14.46C24.4604 14.311 24.2694 14.22 24.0704 14.2C23.8604 14.189 23.6604 14.26 23.5094 14.4L19.0004 18C18.4204 18.481 17.5894 18.481 17.0004 18L12.5004 14.4C12.1894 14.17 11.7594 14.2 11.5004 14.47C11.2304 14.74 11.2004 15.17 11.4294 15.47L11.5604 15.6L16.1104 19.15C16.6704 19.59 17.3494 19.83 18.0604 19.83C18.7694 19.83 19.4604 19.59 20.0194 19.15L24.5304 15.54Z" fill="white"/>
</svg>
