<svg width="20" height="20" viewBox="0 0 20 20" fill="none" xmlns="http://www.w3.org/2000/svg">
<path fill-rule="evenodd" clip-rule="evenodd" d="M5.91991 0L14.0899 0C17.6199 0 19.9999 2.271 19.9999 5.66V14.33C19.9999 17.72 17.6199 20 14.0899 20H5.91991C2.37991 20 -9.15527e-05 17.72 -9.15527e-05 14.33L-9.15527e-05 5.66C-9.15527e-05 2.271 2.37991 0 5.91991 0ZM7.72991 10.75H14.0799C14.4999 10.75 14.8299 10.41 14.8299 10C14.8299 9.58 14.4999 9.25 14.0799 9.25H7.72991L10.2099 6.78C10.3499 6.64 10.4299 6.44 10.4299 6.25C10.4299 6.061 10.3499 5.87 10.2099 5.72C9.91991 5.43 9.43991 5.43 9.14991 5.72L5.37991 9.47C5.09991 9.75 5.09991 10.25 5.37991 10.53L9.14991 14.28C9.43991 14.57 9.91991 14.57 10.2099 14.28C10.4999 13.98 10.4999 13.51 10.2099 13.21L7.72991 10.75Z" fill="#200E32"/>
</svg>
