<svg width="36" height="36" viewBox="0 0 36 36" fill="none" xmlns="http://www.w3.org/2000/svg">
<circle cx="18" cy="18" r="18" fill="#FAFAFA"/>
<path d="M6 14C6 9.58172 9.58172 6 14 6H22C26.4183 6 30 9.58172 30 14V22C30 26.4183 26.4183 30 22 30H14C9.58172 30 6 26.4183 6 22V14Z" fill="#C94A4F"/>
<path fill-rule="evenodd" clip-rule="evenodd" d="M23.5227 13.396V14.9293C25.2451 15.467 26.5 17.0261 26.5 18.8884V23.8253C26.5 26.1308 24.5886 28 22.2322 28H13.7688C11.4114 28 9.5 26.1308 9.5 23.8253V18.8884C9.5 17.0261 10.7559 15.467 12.4773 14.9293V13.396C12.4874 10.4148 14.9567 8 17.9848 8C21.0535 8 23.5227 10.4148 23.5227 13.396ZM18.0051 9.73904C20.0678 9.73904 21.7445 11.3787 21.7445 13.396V14.7137H14.2555V13.3761C14.2657 11.3688 15.9423 9.73904 18.0051 9.73904ZM18.8891 22.4549C18.8891 22.9419 18.4928 23.3294 17.9949 23.3294C17.5072 23.3294 17.1109 22.9419 17.1109 22.4549V20.2488C17.1109 19.7718 17.5072 19.3843 17.9949 19.3843C18.4928 19.3843 18.8891 19.7718 18.8891 20.2488V22.4549Z" fill="white"/>
</svg>
