<svg width="36" height="36" viewBox="0 0 36 36" fill="none" xmlns="http://www.w3.org/2000/svg">
<circle cx="18" cy="18" r="18" fill="#FAFAFA"/>
<path d="M6 14C6 9.58172 9.58172 6 14 6H22C26.4183 6 30 9.58172 30 14V22C30 26.4183 26.4183 30 22 30H14C9.58172 30 6 26.4183 6 22V14Z" fill="#C94A4F"/>
<path d="M16.8159 20.1841L15.2182 21.7818C14.8814 22.1186 14.3459 22.1186 14.0005 21.7905C13.9055 21.6955 13.8105 21.6091 13.7155 21.5141C12.8259 20.6159 12.0227 19.6745 11.3059 18.69C10.5977 17.7055 10.0277 16.7209 9.61318 15.745C9.20727 14.7605 9 13.8191 9 12.9209C9 12.3336 9.10364 11.7723 9.31091 11.2541C9.51818 10.7273 9.84636 10.2436 10.3041 9.81182C10.8568 9.26773 11.4614 9 12.1005 9C12.3423 9 12.5841 9.05182 12.8 9.15545C13.0245 9.25909 13.2232 9.41455 13.3786 9.63909L15.3823 12.4632C15.5377 12.6791 15.65 12.8777 15.7277 13.0677C15.8055 13.2491 15.8486 13.4305 15.8486 13.5945C15.8486 13.8018 15.7882 14.0091 15.6673 14.2077C15.555 14.4064 15.3909 14.6136 15.1836 14.8209L14.5273 15.5032C14.4323 15.5982 14.3891 15.7105 14.3891 15.8486C14.3891 15.9177 14.3977 15.9782 14.415 16.0473C14.4409 16.1164 14.4668 16.1682 14.4841 16.22C14.6395 16.505 14.9073 16.8764 15.2873 17.3255C15.6759 17.7745 16.0905 18.2323 16.5395 18.69C16.6259 18.7764 16.7209 18.8627 16.8073 18.9491C17.1527 19.2859 17.1614 19.8386 16.8159 20.1841Z" fill="white"/>
<path d="M26.2469 23.1032C26.2469 23.345 26.2037 23.5955 26.1174 23.8373C26.0914 23.9064 26.0655 23.9755 26.031 24.0446C25.8842 24.3555 25.6942 24.6491 25.4437 24.9255C25.0205 25.3918 24.5542 25.7286 24.0274 25.9446C24.0187 25.9446 24.0101 25.9532 24.0014 25.9532C23.4919 26.1605 22.9392 26.2727 22.3433 26.2727C21.4624 26.2727 20.521 26.0655 19.5278 25.6423C18.5346 25.2191 17.5414 24.6491 16.5569 23.9323C16.2201 23.6818 15.8833 23.4314 15.5637 23.1636L18.3878 20.3396C18.6296 20.5209 18.8455 20.6591 19.0269 20.7541C19.0701 20.7714 19.1219 20.7973 19.1824 20.8232C19.2514 20.8491 19.3205 20.8577 19.3983 20.8577C19.5451 20.8577 19.6574 20.8059 19.7524 20.7109L20.4087 20.0632C20.6246 19.8473 20.8319 19.6832 21.0305 19.5796C21.2292 19.4586 21.4278 19.3982 21.6437 19.3982C21.8078 19.3982 21.9805 19.4327 22.1705 19.5105C22.3605 19.5882 22.5592 19.7005 22.7751 19.8473L25.6337 21.8768C25.8583 22.0323 26.0137 22.2136 26.1087 22.4296C26.1951 22.6455 26.2469 22.8614 26.2469 23.1032Z" fill="white"/>
</svg>
