<svg width="32" height="32" viewBox="0 0 32 32" fill="none" xmlns="http://www.w3.org/2000/svg">
<circle cx="16" cy="16" r="15.3714" fill="#EEEEEE" stroke="#AAAAAA" stroke-width="1.25726"/>
<mask id="path-2-inside-1_125_8611" fill="white">
<path fill-rule="evenodd" clip-rule="evenodd" d="M4 26.5836V26.0003C4 22.0103 11.995 20.0003 16 20.0003C20.005 20.0003 28 22.0103 28 26.0003V26.5835C25.0682 29.9052 20.7788 32.0002 16 32.0002C11.2212 32.0002 6.93178 29.9052 4 26.5836ZM16 6.66699C12.685 6.66699 9.99999 9.35199 9.99999 12.667C9.99999 15.982 12.685 18.667 16 18.667C19.315 18.667 22 15.982 22 12.667C22 9.35199 19.315 6.66699 16 6.66699Z"/>
</mask>
<path fill-rule="evenodd" clip-rule="evenodd" d="M4 26.5836V26.0003C4 22.0103 11.995 20.0003 16 20.0003C20.005 20.0003 28 22.0103 28 26.0003V26.5835C25.0682 29.9052 20.7788 32.0002 16 32.0002C11.2212 32.0002 6.93178 29.9052 4 26.5836ZM16 6.66699C12.685 6.66699 9.99999 9.35199 9.99999 12.667C9.99999 15.982 12.685 18.667 16 18.667C19.315 18.667 22 15.982 22 12.667C22 9.35199 19.315 6.66699 16 6.66699Z" fill="#EEEEEE"/>
<path d="M4 26.5836H2.74274V27.059L3.05739 27.4155L4 26.5836ZM28 26.5835L28.9426 27.4155L29.2573 27.059V26.5835H28ZM5.25726 26.5836V26.0003H2.74274V26.5836H5.25726ZM5.25726 26.0003C5.25726 25.4646 5.51564 24.9023 6.1645 24.3034C6.8219 23.6967 7.79271 23.141 8.96566 22.6712C11.3136 21.7306 14.1547 21.2576 16 21.2576V18.7431C13.8403 18.7431 10.6814 19.2751 8.03059 20.337C6.70417 20.8683 5.42591 21.5633 4.45909 22.4556C3.48373 23.3558 2.74274 24.541 2.74274 26.0003H5.25726ZM16 21.2576C17.8453 21.2576 20.6864 21.7306 23.0343 22.6712C24.2073 23.141 25.1781 23.6967 25.8355 24.3034C26.4844 24.9023 26.7427 25.4646 26.7427 26.0003H29.2573C29.2573 24.541 28.5163 23.3558 27.5409 22.4556C26.5741 21.5633 25.2958 20.8683 23.9694 20.337C21.3186 19.2751 18.1597 18.7431 16 18.7431V21.2576ZM26.7427 26.0003V26.5835H29.2573V26.0003H26.7427ZM27.0574 25.7515C24.3541 28.8143 20.4031 30.743 16 30.743V33.2575C21.1545 33.2575 25.7823 30.9961 28.9426 27.4155L27.0574 25.7515ZM16 30.743C11.5969 30.743 7.64586 28.8143 4.94261 25.7516L3.05739 27.4155C6.2177 30.9961 10.8455 33.2575 16 33.2575V30.743ZM11.2572 12.667C11.2572 10.0464 13.3794 7.92425 16 7.92425V5.40973C11.9906 5.40973 8.74273 8.65763 8.74273 12.667H11.2572ZM16 17.4097C13.3794 17.4097 11.2572 15.2876 11.2572 12.667H8.74273C8.74273 16.6764 11.9906 19.9243 16 19.9243V17.4097ZM20.7427 12.667C20.7427 15.2876 18.6206 17.4097 16 17.4097V19.9243C20.0094 19.9243 23.2573 16.6764 23.2573 12.667H20.7427ZM16 7.92425C18.6206 7.92425 20.7427 10.0464 20.7427 12.667H23.2573C23.2573 8.65763 20.0094 5.40973 16 5.40973V7.92425Z" fill="#AAAAAA" mask="url(#path-2-inside-1_125_8611)"/>
</svg>
